<?xml version="1.0" encoding="utf-8"?>
<!-- Generator: Adobe Illustrator 23.0.4, SVG Export Plug-In . SVG Version: 6.00 Build 0)  -->
<svg version="1.1" id="Layer_1" xmlns="http://www.w3.org/2000/svg" xmlns:xlink="http://www.w3.org/1999/xlink" x="0px" y="0px"
	 viewBox="0 0 400 99" style="enable-background:new 0 0 400 99;" xml:space="preserve">
<style type="text/css">
	.st0{fill:#FDFCFC;}
	.st1{fill:#FFFFFF;}
	.st2{fill:#FC8230;}
	.st3{fill:#131313;}
	.st4{fill:#FC8638;}
	.st5{fill:#8EEB82;}
	.st6{fill:#5A97C1;}
	.st7{fill:#E388E6;}
	.st8{fill:#F26288;}
</style>
<path class="st0" d="M323.31,17.27c-0.03-7.17-3.23-10.29-10.44-10.3c-20.65-0.03-41.29,0.02-61.94-0.03
	c-0.81,0-1.51-0.05-2.13-0.13c-0.06,0-0.12,0.01-0.19,0.01h-13.55c-0.38,0.09-0.74,0.08-1.09,0h-3.74
	c-3.32,0.38-5.93,1.27-5.96,3.15c-0.01,0.74-0.16,1.4-0.41,1.97v48.87c0.44,7.51,3.5,10.01,11.77,10.24
	c6.21,0.17,9.34,3.35,9.49,9.68c0.05,2,0.04,4,0,5.99c-0.05,2.08,0.09,4.11,2.3,5.08c1.96,0.86,3.47-0.24,4.98-1.39
	c6.64-5.02,13.37-9.91,19.96-14.99c4-3.08,8.33-4.53,13.41-4.43c8.82,0.18,17.65,0.08,26.47,0.04c7.75-0.04,11.05-3.22,11.08-10.82
	C323.37,45.9,323.38,31.59,323.31,17.27z M276.53,49.13c-4.66,0.01-9.31,0-13.97,0c-4.32,0-8.65,0.02-12.97,0
	c-2.24-0.01-4.2-0.9-4.09-3.31c0.09-2.05,1.93-2.92,3.99-2.92c8.98,0,17.96-0.01,26.94,0.01c2.22,0.01,4.21,0.84,4.09,3.3
	C280.41,48.3,278.56,49.13,276.53,49.13z M291.09,49.23c-1.82-0.16-3.33-1.32-3.37-3.06c-0.05-2.03,1.52-3.24,3.57-3.33
	c2.2-0.1,3.25,1.22,3.56,3.09C294.46,48.26,293.25,49.42,291.09,49.23z M296.5,35.75c-5.32-0.05-10.64-0.01-15.95-0.01
	c-5.15,0-10.3-0.07-15.45,0.03c-2.86,0.05-5.36-0.97-5.48-3.81c-0.13-3.1,2.61-3.78,5.34-3.77c10.47,0.02,20.94,0.01,31.41,0
	c2.67,0,5.41,0.41,5.42,3.67C301.79,34.95,299.31,35.77,296.5,35.75z"/>
<path class="st1" d="M400,11c-13.47,21.1-26.94,42.2-41.06,64.32c3.65,0,6.51,0.05,9.37-0.01c8.81-0.18,17.65,0.53,26.44-0.64
	c0.62-0.08,1.76-0.24,1.8-0.09c1.04,3.4,0.6,6.91,0.39,10.35c-0.16,2.61-2.57,2.1-4.32,2.11c-10.99,0.03-21.97,0.02-32.96,0.02
	c-5.16,0-10.32,0.02-15.48,0c-5.22-0.02-7.5-2.98-5.94-7.98c0.53-1.71,1.62-3.27,2.59-4.81c11.71-18.55,23.44-37.08,35.17-55.62
	c0.42-0.67,0.77-1.39,1.58-2.89c-10.08,0-19.6,0.1-29.12-0.08c-2.02-0.04-5.5,2.43-5.57-2.74c-0.12-8.26,0.36-9.6,5.58-9.62
	c15.48-0.07,30.96,0.05,46.44-0.1c2.49-0.02,3.83,1.06,5.08,2.79C400,7.67,400,9.33,400,11z"/>
<path class="st2" d="M320,0c8.21,3.58,11.06,10.01,10.85,18.72c-0.33,14.12-0.07,28.26-0.09,42.39
	c-0.02,11.07-5.77,16.79-16.93,16.84c-9.47,0.04-18.95,0.08-28.42,0c-2.77-0.02-5.29,0.49-7.5,2.15C269.59,86.38,261.3,92.7,253,99
	c-2.67,0-5.33,0-8,0c-5.19-3.14-7.26-7.64-6.91-13.77c0.38-6.75-0.23-7.07-6.84-7.29c-8.32-0.28-14.8-6.48-14.94-15.04
	c-0.23-14.48-0.07-28.97-0.06-43.46c0-2.85,1.19-5.12,4.21-5.13c3.12,0,3.35,2.58,3.35,5.08c-0.02,13.15-0.04,26.31-0.01,39.46
	c0.03,9.04,2.89,11.94,11.83,12.19c6.21,0.17,9.34,3.35,9.49,9.68c0.05,2,0.04,4,0,5.99c-0.05,2.08,0.09,4.11,2.3,5.08
	c1.96,0.86,3.47-0.24,4.98-1.39c6.64-5.02,13.37-9.91,19.96-14.99c4-3.08,8.33-4.53,13.41-4.43c8.82,0.18,17.65,0.08,26.47,0.04
	c7.75-0.04,11.05-3.22,11.08-10.82c0.05-14.32,0.06-28.64-0.01-42.96c-0.03-7.17-3.23-10.29-10.44-10.3
	c-20.65-0.03-41.29,0.02-61.94-0.03C245.21,6.93,244.13,4.92,247,0c0.67,0,1.33,0,2,0c1.14,1.39,2.72,0.98,4.17,0.98
	c20.22,0.02,40.45,0.02,60.67,0c1.44,0,3.03,0.41,4.16-0.98C318.67,0,319.33,0,320,0z"/>
<path class="st1" d="M0,4c7.43-1.87,8.06-1.59,11.15,5.3c7.4,16.5,14.79,33.02,22.34,49.88c6.66-15.06,13.21-29.86,19.76-44.65
	c1.28-2.89,2.57-5.76,3.88-8.64c0.74-1.62,1.81-2.51,3.79-2.66c5.92-0.45,6.1-0.39,6.1,5.59c0,24.48-0.15,48.97,0.13,73.45
	c0.05,4.82-2.16,4.64-5.65,4.91c-4.37,0.34-4.32-1.85-4.24-5.02c0.5-20.13,0.55-40.27,1.05-60.65c-2.74,6.27-5.38,12.58-8.25,18.79
	c-4.1,8.9-8.42,17.69-12.52,26.59c-1.01,2.18-2.15,3.33-4.78,3.43c-3,0.12-3.57-1.85-4.44-3.78C22.16,52.73,16.03,38.92,9.9,25.11
	c-0.46-1.03-0.97-2.04-1.45-3.04c-2.21,0.66-1.54,2.35-1.37,3.37c3.32,19.13,1.69,38.45,2.27,57.68c0.06,2-0.33,2.81-2.61,3.08
	C4.5,86.46,2.32,87.25,0,87c0-0.67,0-1.33,0-2c1.52-1.3,0.97-3.08,0.97-4.67C1,57.11,1,33.89,0.97,10.67C0.97,9.08,1.52,7.3,0,6
	C0,5.33,0,4.67,0,4z"/>
<path class="st3" d="M0,6c1.52,1.3,0.97,3.08,0.97,4.67C1,33.89,1,57.11,0.97,80.33C0.97,81.92,1.52,83.7,0,85C0,58.67,0,32.33,0,6z
	"/>
<path class="st4" d="M318,0c-1.13,1.39-2.72,0.98-4.16,0.98C293.61,1,273.39,1,253.17,0.98c-1.44,0-3.03,0.41-4.17-0.98
	C272,0,295,0,318,0z"/>
<path class="st5" d="M236,0c1.61,1.89,3.54,3.75,0.56,6.06c-2.06,1.59-3.61,0.68-4.98-1.04C229.72,2.69,232.28,1.6,233,0
	C234,0,235,0,236,0z"/>
<path class="st1" d="M170.78,73.96c2.79-22.51,8.25-43.8,12.34-65.35c0.76-3.99,2.91-5.71,6.97-5.34c4.89,0.45,9.87-0.7,14.73,0.66
	c-1.16,4.64-2.26,9.31-3.5,13.93c-5.78,21.5-11.67,42.98-17.36,64.5c-0.92,3.49-2.32,5.46-6.23,5.33c-4.49-0.15-9,0.28-13.49,0.11
	c-4.76-0.18-8.07-2.49-9.54-7.31c-7.33-24.01-13.22-48.4-19.58-72.67c-0.82-3.13,0.44-4.44,3.38-4.48
	c4.83-0.07,9.67,0.05,14.49-0.08c2.28-0.06,2.66,1.23,3.06,3.03c4.5,20.63,9.46,41.16,13.02,61.99
	C169.38,70.06,169.37,71.92,170.78,73.96z"/>
<path class="st1" d="M96.98,45.5c0,12.49-0.22,24.99,0.1,37.48c0.13,5.19-3.13,3.77-5.88,4.12c-3.35,0.43-4.14-0.88-4.13-4.12
	c0.13-24.65,0.06-49.3,0.08-73.96c0-4.7,3.86-7.21,8.43-5.72c2.22,0.72,1.34,2.43,1.35,3.72C97,19.85,96.98,32.68,96.98,45.5z"/>
<path class="st6" d="M280.55,35.73c-5.15,0-10.3-0.07-15.45,0.03c-2.86,0.05-5.36-0.97-5.48-3.81c-0.13-3.1,2.61-3.78,5.34-3.77
	c10.47,0.02,20.94,0.01,31.41,0c2.67,0,5.41,0.41,5.42,3.67c0.01,3.1-2.47,3.92-5.28,3.9C291.18,35.7,285.87,35.73,280.55,35.73z"/>
<path class="st7" d="M262.56,49.14c-4.32,0-8.65,0.02-12.97-0.01c-2.24-0.01-4.2-0.9-4.09-3.31c0.09-2.05,1.93-2.92,3.99-2.92
	c8.98,0,17.96-0.01,26.94,0.01c2.22,0.01,4.21,0.84,4.09,3.3c-0.1,2.09-1.95,2.92-3.99,2.92C271.87,49.14,267.21,49.14,262.56,49.14
	z"/>
<path class="st8" d="M294.85,45.93c-0.39,2.33-1.61,3.49-3.76,3.3c-1.82-0.16-3.33-1.32-3.37-3.06c-0.05-2.03,1.52-3.24,3.57-3.33
	C293.49,42.73,294.54,44.06,294.85,45.93z"/>
</svg>
